<?xml version="1.0" encoding="UTF-8"?>
<!--
     Dark: #769656   Light: #eeeed2
     Board: 240x240 (each square 30x30)
-->
<svg xmlns="http://www.w3.org/2000/svg"
     width="240" height="240"
     viewBox="0 0 240 240"
     role="img">
  <defs>
    <style>
      .light { fill: #eeeed2; }
      .dark  { fill: #769656; }
    </style>
  </defs>

  <!-- 8×8 grid -->
  <g id="board">
    <!-- Rank 8 -->
    <rect x="0"   y="0"   width="30" height="30" class="light"/>
    <rect x="30"  y="0"   width="30" height="30" class="dark"/>
    <rect x="60"  y="0"   width="30" height="30" class="light"/>
    <rect x="90"  y="0"   width="30" height="30" class="dark"/>
    <rect x="120" y="0"   width="30" height="30" class="light"/>
    <rect x="150" y="0"   width="30" height="30" class="dark"/>
    <rect x="180" y="0"   width="30" height="30" class="light"/>
    <rect x="210" y="0"   width="30" height="30" class="dark"/>

    <!-- Rank 7 -->
    <rect x="0"   y="30"  width="30" height="30" class="dark"/>
    <rect x="30"  y="30"  width="30" height="30" class="light"/>
    <rect x="60"  y="30"  width="30" height="30" class="dark"/>
    <rect x="90"  y="30"  width="30" height="30" class="light"/>
    <rect x="120" y="30"  width="30" height="30" class="dark"/>
    <rect x="150" y="30"  width="30" height="30" class="light"/>
    <rect x="180" y="30"  width="30" height="30" class="dark"/>
    <rect x="210" y="30"  width="30" height="30" class="light"/>

    <!-- Rank 6 -->
    <rect x="0"   y="60"  width="30" height="30" class="light"/>
    <rect x="30"  y="60"  width="30" height="30" class="dark"/>
    <rect x="60"  y="60"  width="30" height="30" class="light"/>
    <rect x="90"  y="60"  width="30" height="30" class="dark"/>
    <rect x="120" y="60"  width="30" height="30" class="light"/>
    <rect x="150" y="60"  width="30" height="30" class="dark"/>
    <rect x="180" y="60"  width="30" height="30" class="light"/>
    <rect x="210" y="60"  width="30" height="30" class="dark"/>

    <!-- Rank 5 -->
    <rect x="0"   y="90"  width="30" height="30" class="dark"/>
    <rect x="30"  y="90"  width="30" height="30" class="light"/>
    <rect x="60"  y="90"  width="30" height="30" class="dark"/>
    <rect x="90"  y="90"  width="30" height="30" class="light"/>
    <rect x="120" y="90"  width="30" height="30" class="dark"/>
    <rect x="150" y="90"  width="30" height="30" class="light"/>
    <rect x="180" y="90"  width="30" height="30" class="dark"/>
    <rect x="210" y="90"  width="30" height="30" class="light"/>

    <!-- Rank 4 -->
    <rect x="0"   y="120" width="30" height="30" class="light"/>
    <rect x="30"  y="120" width="30" height="30" class="dark"/>
    <rect x="60"  y="120" width="30" height="30" class="light"/>
    <rect x="90"  y="120" width="30" height="30" class="dark"/>
    <rect x="120" y="120" width="30" height="30" class="light"/>
    <rect x="150" y="120" width="30" height="30" class="dark"/>
    <rect x="180" y="120" width="30" height="30" class="light"/>
    <rect x="210" y="120" width="30" height="30" class="dark"/>

    <!-- Rank 3 -->
    <rect x="0"   y="150" width="30" height="30" class="dark"/>
    <rect x="30"  y="150" width="30" height="30" class="light"/>
    <rect x="60"  y="150" width="30" height="30" class="dark"/>
    <rect x="90"  y="150" width="30" height="30" class="light"/>
    <rect x="120" y="150" width="30" height="30" class="dark"/>
    <rect x="150" y="150" width="30" height="30" class="light"/>
    <rect x="180" y="150" width="30" height="30" class="dark"/>
    <rect x="210" y="150" width="30" height="30" class="light"/>

    <!-- Rank 2 -->
    <rect x="0"   y="180" width="30" height="30" class="light"/>
    <rect x="30"  y="180" width="30" height="30" class="dark"/>
    <rect x="60"  y="180" width="30" height="30" class="light"/>
    <rect x="90"  y="180" width="30" height="30" class="dark"/>
    <rect x="120" y="180" width="30" height="30" class="light"/>
    <rect x="150" y="180" width="30" height="30" class="dark"/>
    <rect x="180" y="180" width="30" height="30" class="light"/>
    <rect x="210" y="180" width="30" height="30" class="dark"/>

    <!-- Rank 1 -->
    <rect x="0"   y="210" width="30" height="30" class="dark"/>
    <rect x="30"  y="210" width="30" height="30" class="light"/>
    <rect x="60"  y="210" width="30" height="30" class="dark"/>
    <rect x="90"  y="210" width="30" height="30" class="light"/>
    <rect x="120" y="210" width="30" height="30" class="dark"/>
    <rect x="150" y="210" width="30" height="30" class="light"/>
    <rect x="180" y="210" width="30" height="30" class="dark"/>
    <rect x="210" y="210" width="30" height="30" class="light"/>
  </g>
</svg>
